<svg xmlns="http://www.w3.org/2000/svg" width="164" height="188" fill="none"><path fill="#3A3A3A" d="M54.58 188c-2.79 0-9.99-.62-16.55-6.37-.72-.62-1.7-1.4-2.86-2.3-9.42-7.4-29.04-22.82-35.45-58.55l-.07-.4.02-.42c.05-.75.75-7.56 11.63-15.31.88-.62 3.91-2.6 6.76-2.6 1.7 0 3.2.7 4.18 1.95l14.67 18.5.22.3a6.56 6.56 0 0 1-1.25 8.44l-5.9 5.89c-.17 2.11-.19 7.26 3.1 11.1 3.69 4.31 7.5 5.79 9.27 6.27l5.5-2.75c.67-.38 2.94-1.55 5.5-1.55 2.29 0 4.27.95 5.6 2.68a1741.1 1741.1 0 0 0 12.6 15.76l.16.2c1.11 1.61 2.33 5.15-.17 8.21-1.45 1.77-6.5 7.7-10.87 9.78-1.6.76-3.71 1.17-6.09 1.17ZM6.72 120.14c6.05 32.68 24.09 46.85 32.78 53.68 1.23.97 2.28 1.8 3.14 2.55A18.7 18.7 0 0 0 54.58 181c1.51 0 2.59-.25 3.08-.5 2.11-1 5.73-4.57 8.29-7.67-1.4-1.73-10.36-12.83-12.5-15.63h-.1c-.73 0-1.78.48-2.07.65l-.21.11-7.65 3.83-1.08-.16c-1.33-.19-8.3-1.5-14.58-8.85-6.44-7.53-4.61-17.52-4.53-17.94l.2-1.06 7.53-7.52-13.5-17.03c-.61.23-1.47.69-2.12 1.14-6.8 4.83-8.33 8.8-8.62 9.77Z"/><path fill="#F0C42E" d="M78.44 103.54c-3.45 0-6.06-.6-6.17-.62a2.5 2.5 0 0 1-1.22-4.19l7.38-7.52c-1.03-3.84-3.33-5.35-4.66-5.92l-8.29 7.26a2.5 2.5 0 0 1-4-1.02 19.63 19.63 0 0 1 2.76-18.62 18.22 18.22 0 0 1 13.96-6.36c2.78 0 5.16.57 6.66 1.05l16.77-16.76c-1.01-3.43-2.46-11.54 3.54-18.47a15.48 15.48 0 0 1 12-5.56c4.84 0 8.67 2.03 8.83 2.12.25.13.48.31.68.53l.18.2c.9 1 .85 2.51-.1 3.45l-6.8 6.73c.78 2.88 3.02 4.54 4.46 5.33l8.22-7.4a2.5 2.5 0 0 1 4.1 1.27c2.13 8.8.48 15.6-5.03 20.78-2.57 2.42-6.35 3.64-11.24 3.64-2.79 0-5.32-.4-6.84-.71L97.13 79.4c.73 3.18 1.63 10.62-3.44 17.57-3.13 4.3-8.4 6.57-15.25 6.57Zm-.2-5c3.66.01 8.64-.71 11.4-4.51 4.95-6.78 2.44-14.22 2.34-14.53-.32-.9-.1-1.91.58-2.6l18.5-18.66a2.5 2.5 0 0 1 2.43-.65c.03 0 3.3.87 6.98.87 2.46 0 5.81-.4 7.82-2.28 3.29-3.1 4.68-6.78 4.3-11.64l-6.04 5.44c-.67.6-1.62.8-2.47.51-.34-.11-8.3-2.89-9.31-11.19a2.5 2.5 0 0 1 .72-2.08l5.05-5c-.98-.23-2.14-.41-3.37-.41-3.25 0-6.02 1.29-8.22 3.82-5.65 6.54-2.19 14.8-2.15 14.88.4.94.2 2.03-.53 2.76l-19 19a2.5 2.5 0 0 1-2.82.5c-.02-.01-2.73-1.22-6.25-1.22-4 0-7.4 1.53-10.12 4.56-.35.45-3.29 4.38-2.76 9.94l6.2-5.43a2.5 2.5 0 0 1 2.03-.6c.34.06 8.29 1.4 10.08 11.54a2.5 2.5 0 0 1-.68 2.2l-4.7 4.78Z"/><path fill="#3A3A3A" d="m78.92 54.03 9.24 10.28 3.54-3.54-13.29-14.8-2.73 3.96L68.4 39.3l4.73-4.73 10.63 7.28-3.95 2.73L94.6 57.87l3.54-3.55-10.28-9.23 4.71-3.27L72.53 28.1l-10.6 10.6 13.73 20.04 3.26-4.71ZM117.15 63.28a37.19 37.19 0 0 1-3.52-.53l-2.03 2.05 18.7 18.7c.46.6 3.1 4.3.09 7.58l-5.48 5.47c-3.25 2.98-6.9.44-7.58-.08L98.7 77.82l-1.56 1.58c.24 1.07.5 2.63.55 4.48l16.22 16.22.17.16a12.28 12.28 0 0 0 7.45 2.72c2.23 0 4.63-.74 6.86-2.82l5.51-5.51.1-.1c5.02-5.37 2.26-11.7.1-14.31l-16.94-16.96Z"/><path fill="#3A3A3A" d="M98.02 7a58.99 58.99 0 0 1 57.35 72.42v.03l-.01.03-.03.13a36.36 36.36 0 0 1-.42 1.67l-.1.4-.09.33c-5.56 20.05-18.52 37.7-38.5 52.44a143.42 143.42 0 0 1-19.72 12.17v-21.5l-6.1-.79a59 59 0 0 1-51.3-58.4A58.99 58.99 0 0 1 98.02 7Zm0-7a65.92 65.92 0 0 0-8.52 131.28v26.22s57.44-21.24 71.97-73.62l.21-.81.33-1.28.18-.77A65.92 65.92 0 0 0 98.03 0Z"/></svg>